<?xml version="1.0" encoding="iso-8859-1"?>
<!-- Generator: Adobe Illustrator 15.1.0, SVG Export Plug-In . SVG Version: 6.00 Build 0)  -->
<!DOCTYPE svg PUBLIC "-//W3C//DTD SVG 1.1//EN" "http://www.w3.org/Graphics/SVG/1.1/DTD/svg11.dtd">
<svg version="1.1" id="Layer_1" xmlns="http://www.w3.org/2000/svg" xmlns:xlink="http://www.w3.org/1999/xlink" x="0px" y="0px"
	 width="216px" height="216px" viewBox="0 0 216 216" enable-background="new 0 0 216 216" xml:space="preserve">
<polygon fill="#999999" points="110.911,-0.021 106.2,-0.021 102.725,4.235 114.387,4.235 110.911,-0.021 "/>
<polyline fill="#B3B3B3" points="114.387,34.401 102.725,34.401 102.725,4.235 114.387,4.235 114.387,34.401 "/>
<polyline fill="#CFCFCF" points="108.774,28.797 104.772,28.797 104.772,4.235 108.774,4.235 108.774,28.797 "/>
<polyline fill="#999999" points="114.387,34.401 102.725,34.401 102.725,28.797 114.387,28.797 114.387,34.401 "/>
<polyline fill="#B3B3B3" points="117.282,94.789 99.83,94.789 99.83,30.197 117.282,30.197 117.282,94.789 "/>
<polyline fill="#009245" points="117.282,36.503 99.83,36.503 99.83,32.089 117.282,32.089 117.282,36.503 "/>
<polyline fill="#009245" points="117.282,52.848 99.83,52.848 99.83,49.298 117.282,49.298 117.282,52.848 "/>
<path fill="#CFCFCF" d="M106.774,94.789h-4.555V52.848h4.555V94.789 M106.774,49.298h-4.555V36.503h4.555V49.298 M106.774,32.089
	h-4.555v-1.892h4.555V32.089"/>
<polyline fill="#00B778" points="106.774,36.503 102.22,36.503 102.22,32.089 106.774,32.089 106.774,36.503 "/>
<polyline fill="#00B778" points="106.774,52.848 102.22,52.848 102.22,49.298 106.774,49.298 106.774,52.848 "/>
<polygon fill="#999999" points="124.528,97.591 92.582,97.591 92.582,92.266 124.528,92.266 124.528,97.591 "/>
<polygon fill="#333333" points="119.429,216 97.688,216 97.688,174.364 119.429,174.364 119.429,216 "/>
<polygon fill="#4D4D4D" points="111.039,216 106.078,216 106.078,174.364 111.039,174.364 111.039,216 "/>
<polygon fill="#4D4D4D" points="119.43,174.364 119.43,182.064 97.688,182.064 97.688,174.364 119.43,174.364 "/>
<polygon fill="#4D4D4D" points="119.43,185.679 119.43,193.375 97.688,193.375 97.688,185.679 119.43,185.679 "/>
<polygon fill="#4D4D4D" points="119.43,196.99 119.43,204.69 97.688,204.69 97.688,196.99 119.43,196.99 "/>
<polygon fill="#4D4D4D" points="119.43,208.306 119.43,216 97.688,216 97.688,208.306 119.43,208.306 "/>
<polygon fill="#666666" points="108.56,174.364 108.56,182.064 101.061,182.064 101.061,174.364 108.56,174.364 "/>
<polygon fill="#666666" points="108.56,185.679 108.56,193.375 101.061,193.375 101.061,185.679 108.56,185.679 "/>
<polygon fill="#666666" points="108.56,196.99 108.56,204.69 101.061,204.69 101.061,196.99 108.56,196.99 "/>
<polygon fill="#666666" points="101.061,208.306 108.56,208.306 108.56,216 101.061,216 101.061,208.306 "/>
<path fill="#4D4D4D" d="M128.172,94.789v71.207c0,5.235-2.857,9.804-7.106,12.219c-2.046,1.171-4.416,1.838-6.945,1.838h-11.125
	c-7.761,0-14.055-6.294-14.055-14.057V94.789H128.172L128.172,94.789z"/>
<path fill="#666666" d="M100.469,94.789v79.732c-3.392-0.309-5.783-1.233-7.471-2.371V94.789H100.469L100.469,94.789z"/>
<path fill="#333333" d="M128.172,165.996c0,7.763-6.288,14.057-14.052,14.057h-11.125c-7.761,0-14.055-6.294-14.055-14.057
	c0,0,0.252,3.604,4.058,6.154c1.688,1.138,4.079,2.063,7.471,2.371c0.783,0.073,1.631,0.111,2.526,0.111h11.125
	C127.556,174.633,128.172,165.996,128.172,165.996L128.172,165.996z"/>
</svg>
