<?xml version="1.0" encoding="iso-8859-1"?>
<!-- Generator: Adobe Illustrator 15.1.0, SVG Export Plug-In . SVG Version: 6.00 Build 0)  -->
<!DOCTYPE svg PUBLIC "-//W3C//DTD SVG 1.1//EN" "http://www.w3.org/Graphics/SVG/1.1/DTD/svg11.dtd">
<svg version="1.1" id="Layer_1" xmlns="http://www.w3.org/2000/svg" xmlns:xlink="http://www.w3.org/1999/xlink" x="0px" y="0px"
	 width="216px" height="216px" viewBox="0 0 216 216" enable-background="new 0 0 216 216" xml:space="preserve">
<polygon fill="#999999" points="109.422,0 104.696,0 101.21,4.269 112.907,4.269 "/>
<polyline fill="#B3B3B3" points="112.907,34.527 101.21,34.527 101.21,4.269 112.907,4.269 112.907,34.527 "/>
<polyline fill="#CFCFCF" points="107.277,28.906 103.263,28.906 103.263,4.269 107.277,4.269 107.277,28.906 "/>
<polyline fill="#999999" points="112.907,34.527 101.21,34.527 101.21,28.906 112.907,28.906 112.907,34.527 "/>
<polyline fill="#B3B3B3" points="115.81,95.102 98.305,95.102 98.305,30.311 115.81,30.311 115.81,95.102 "/>
<polyline fill="#009245" points="115.81,36.635 98.305,36.635 98.305,32.208 115.81,32.208 115.81,36.635 "/>
<polyline fill="#009245" points="115.81,53.032 98.305,53.032 98.305,49.471 115.81,49.471 115.81,53.032 "/>
<path fill="#CFCFCF" d="M105.271,95.102h-4.568v-42.07h4.568V95.102 M105.271,49.471h-4.568V36.637h4.568V49.471 M105.271,32.208
	h-4.568v-1.897h4.568V32.208"/>
<polyline fill="#00B778" points="105.271,36.635 100.703,36.635 100.703,32.208 105.271,32.208 105.271,36.635 "/>
<polyline fill="#00B778" points="105.271,53.032 100.703,53.032 100.703,49.471 105.271,49.471 105.271,53.032 "/>
<polygon fill="#999999" points="123.079,97.914 91.035,97.914 91.035,92.572 123.079,92.572 "/>
<polygon fill="#333333" points="117.966,216.687 96.156,216.687 96.156,174.924 117.966,174.924 "/>
<polygon fill="#4D4D4D" points="109.549,216.687 104.574,216.687 104.574,174.924 109.549,174.924 "/>
<polygon fill="#4D4D4D" points="117.966,174.924 117.966,182.647 96.156,182.647 96.156,174.924 "/>
<polygon fill="#4D4D4D" points="117.966,186.274 117.966,193.993 96.156,193.993 96.156,186.274 "/>
<polygon fill="#4D4D4D" points="117.966,197.619 117.966,205.344 96.156,205.344 96.156,197.619 "/>
<polygon fill="#4D4D4D" points="117.966,208.969 117.966,216.687 96.156,216.687 96.156,208.969 "/>
<polygon fill="#666666" points="107.061,174.924 107.061,182.647 99.541,182.647 99.541,174.924 "/>
<polygon fill="#666666" points="107.061,186.274 107.061,193.993 99.541,193.993 99.541,186.274 "/>
<polygon fill="#666666" points="107.061,197.619 107.061,205.344 99.541,205.344 99.541,197.619 "/>
<polygon fill="#666666" points="99.541,208.969 107.061,208.969 107.061,216.687 99.541,216.687 "/>
<path fill="#4D4D4D" d="M126.735,95.102v71.426c0,5.251-2.867,9.834-7.129,12.257c-2.051,1.174-4.43,1.845-6.965,1.845h-11.16
	c-7.785,0-14.099-6.314-14.099-14.102V95.102H126.735L126.735,95.102z"/>
<path fill="#666666" d="M98.948,95.102v79.977c-3.402-0.308-5.802-1.236-7.495-2.376V95.102H98.948L98.948,95.102z"/>
<path fill="#333333" d="M126.735,166.528c0,7.787-6.307,14.102-14.094,14.102h-11.16c-7.785,0-14.099-6.314-14.099-14.102
	c0,0,0.253,3.615,4.07,6.175c1.693,1.14,4.093,2.066,7.495,2.376c0.786,0.075,1.635,0.114,2.534,0.114h11.16
	C126.118,175.193,126.735,166.528,126.735,166.528L126.735,166.528z"/>
<g>
	<path d="M54.4,156.336v-7.169h25.752v-12.641h6.037v19.81H54.4z"/>
	<path d="M54.4,126.577h18.253c5.518,0,8.301-2.122,8.301-5.754c0-3.773-2.641-5.849-8.301-5.849H54.4v-7.169h17.828
		c9.811,0,14.48,4.952,14.48,13.254c0,8.018-4.481,12.687-14.574,12.687H54.4V126.577z"/>
	<path d="M86.189,101.584H54.4v-8.396l11.649-6.603c3.349-1.887,7.311-3.726,10.896-5.188v-0.094
		c-4.198,0.424-8.49,0.566-13.301,0.566H54.4v-6.603h31.789v7.546l-12.263,6.792c-3.396,1.887-7.5,4.009-11.226,5.518v0.189
		c4.245-0.236,8.726-0.33,13.914-0.33h9.575V101.584z"/>
	<path d="M54.4,68.998V49.613h5.896v12.216h7.263V50.415h5.849v11.414h12.782v7.169H54.4z"/>
</g>
</svg>
