<?xml version="1.0" encoding="iso-8859-1"?>
<!-- Generator: Adobe Illustrator 15.1.0, SVG Export Plug-In . SVG Version: 6.00 Build 0)  -->
<!DOCTYPE svg PUBLIC "-//W3C//DTD SVG 1.1//EN" "http://www.w3.org/Graphics/SVG/1.1/DTD/svg11.dtd">
<svg version="1.1" id="Layer_1" xmlns="http://www.w3.org/2000/svg" xmlns:xlink="http://www.w3.org/1999/xlink" x="0px" y="0px"
	 width="216px" height="216px" viewBox="0 0 216 216" enable-background="new 0 0 216 216" xml:space="preserve">
<polygon fill="#333333" points="135.436,85.229 135.436,123.711 78.043,123.711 78.043,85.229 135.436,85.229 "/>
<polygon fill="#333333" points="120.379,212.11 93.102,212.11 91.957,151.614 121.525,151.614 120.379,212.11 "/>
<polygon fill="#4D4D4D" points="110.709,214.667 102.77,214.667 102.77,151.614 110.709,151.614 110.709,214.667 "/>
<polygon fill="#4D4D4D" points="124.142,151.611 124.028,158.176 89.452,158.176 89.341,151.611 124.142,151.611 "/>
<polygon fill="#4D4D4D" points="123.977,161.254 123.854,167.81 89.629,167.81 89.509,161.254 123.977,161.254 "/>
<polygon fill="#4D4D4D" points="123.802,170.888 123.686,177.453 89.797,177.453 89.681,170.888 123.802,170.888 "/>
<polygon fill="#4D4D4D" points="123.631,180.531 123.51,187.087 89.975,187.087 89.849,180.531 123.631,180.531 "/>
<polygon fill="#4D4D4D" points="123.458,190.166 123.343,196.722 90.143,196.722 90.028,190.166 123.458,190.166 "/>
<polygon fill="#4D4D4D" points="123.289,199.805 123.161,206.364 90.317,206.364 90.197,199.805 123.289,199.805 "/>
<path fill="#4D4D4D" d="M123.11,209.443l-0.036,2.13c-0.039,2.456-2.224,4.427-4.905,4.427H95.311c-0.19,0-0.378-0.007-0.572-0.036
	c-2.409-0.253-4.29-2.109-4.328-4.391l-0.042-2.13H123.11L123.11,209.443z"/>
<polygon fill="#666666" points="106.741,151.611 106.741,158.176 94.855,158.176 94.739,151.611 106.741,151.611 "/>
<polygon fill="#666666" points="94.907,161.254 106.741,161.254 106.741,167.81 95.033,167.81 94.907,161.254 "/>
<polygon fill="#666666" points="95.085,170.888 106.741,170.888 106.741,177.453 95.2,177.453 95.085,170.888 "/>
<polygon fill="#666666" points="106.741,180.531 106.741,187.087 95.373,187.087 95.252,180.531 106.741,180.531 "/>
<polygon fill="#666666" points="106.741,190.166 106.741,196.722 95.54,196.722 95.427,190.166 106.741,190.166 "/>
<polygon fill="#666666" points="106.741,199.805 106.741,206.364 95.719,206.364 95.594,199.805 106.741,199.805 "/>
<polygon fill="#666666" points="95.771,209.443 106.741,209.443 106.741,216 95.887,216 95.771,209.443 "/>
<polygon fill="#B3B3B3" points="127.258,35.615 86.216,35.615 86.216,0.362 127.258,0.362 127.258,35.615 "/>
<polygon fill="#CCCCCC" points="97.943,35.225 91.224,35.225 91.224,0.362 97.943,0.362 97.943,35.225 "/>
<path fill="#4D4D4D" d="M136.559,61.334v26.232H76.915V61.334c0-2.723,2.208-4.932,4.931-4.932h49.783
	C134.35,56.403,136.559,58.611,136.559,61.334L136.559,61.334z"/>
<polygon fill="#4D4D4D" points="131.421,24.847 131.421,56.403 82.054,56.403 82.054,24.847 131.421,24.847 "/>
<polygon fill="#4D4D4D" points="136.559,123.708 136.559,139.459 76.915,139.459 76.915,123.708 136.559,123.708 "/>
<polygon fill="#4D4D4D" points="136.559,91.198 136.559,106.948 76.915,106.948 76.915,91.198 136.559,91.198 "/>
<polygon fill="#4D4D4D" points="136.559,110.674 136.559,119.983 76.915,119.983 76.915,110.674 136.559,110.674 "/>
<polygon fill="#333333" points="89.341,151.611 76.915,139.459 136.559,139.459 124.142,151.611 89.341,151.611 "/>
<polygon fill="#666666" points="94.44,56.403 94.44,87.567 83.083,87.567 83.083,56.403 94.44,56.403 "/>
<polygon fill="#666666" points="95.562,24.847 95.562,56.403 86.881,56.403 86.881,24.847 95.562,24.847 "/>
<polygon fill="#666666" points="94.44,91.198 94.44,106.948 83.083,106.948 83.083,91.198 94.44,91.198 "/>
<polygon fill="#666666" points="94.44,110.674 94.44,119.983 83.083,119.983 83.083,110.674 94.44,110.674 "/>
<polygon fill="#666666" points="83.083,123.708 94.44,123.708 94.44,139.459 83.083,139.459 83.083,123.708 "/>
</svg>
